<?xml version="1.0" standalone="no"?>
<!DOCTYPE svg PUBLIC "-//W3C//DTD SVG 20010904//EN"
 "http://www.w3.org/TR/2001/REC-SVG-20010904/DTD/svg10.dtd">
<svg version="1.0" xmlns="http://www.w3.org/2000/svg"
 width="600.000000pt" height="600.000000pt" viewBox="0 0 600.000000 600.000000"
 preserveAspectRatio="xMidYMid meet">
<metadata>
Created by potrace 1.11, written by Peter Selinger 2001-2013
</metadata>
<g transform="translate(0.000000,600.000000) scale(0.100000,-0.100000)"
fill="#000000" stroke="none">
<path d="M974 3029 l0 -2369 578 0 578 0 0 2369 0 2370 -578 0 -578 0 0 -2370z"/>
<path d="M3495 5282 c-16 -64 -30 -121 -31 -127 -27 -116 -108 -386 -163 -543
-213 -604 -542 -996 -1046 -1247 -50 -25 -52 -28 -49 -73 1 -25 20 -66 54
-122 29 -47 60 -97 69 -112 9 -15 63 -103 120 -195 217 -348 355 -569 381
-613 60 -98 444 -717 465 -750 13 -19 82 -132 155 -250 73 -118 147 -237 165
-265 17 -27 69 -112 116 -187 l84 -138 643 0 c512 0 642 3 636 13 -19 30 -142
219 -266 407 -74 113 -186 284 -250 380 -63 96 -176 267 -250 380 -74 113
-173 264 -220 335 -88 135 -232 354 -479 730 -80 121 -149 226 -154 234 -5 9
-3 18 7 25 128 94 356 317 472 461 168 211 306 457 421 751 25 66 50 128 55
139 8 19 81 239 86 260 2 6 12 42 24 80 21 73 85 321 94 365 2 14 9 47 15 74
7 27 13 61 15 77 l3 28 -571 0 -572 0 -29 -117z"/>
</g>
</svg>
